<svg width="165" height="93" viewBox="0 0 165 93" fill="none" xmlns="http://www.w3.org/2000/svg">
<path d="M161.07 0.534552H134.773M161.07 0.534552V0.667279M161.07 0.534552C162.595 0.478398 163.905 1.85723 163.899 3.36369V10.8449C163.908 12.1646 162.909 13.3377 161.659 13.6169L137.526 18.0413C136.069 18.3185 134.537 17.2184 134.317 15.7814L131.982 3.91451C131.628 2.21407 133.031 0.461041 134.773 0.534552M134.773 0.534552V0.667279M3.36357 0.534552H29.6416M3.36357 0.534552V0.667279M3.36357 0.534552C1.85717 0.47023 0.471245 1.84345 0.534544 3.36369L0.515647 10.8449C0.49676 12.1666 1.50648 13.3479 2.75611 13.6169L26.8886 18.0224C28.3629 18.3047 29.8243 17.1934 30.0974 15.7814L32.414 3.89511C32.7647 2.20947 31.3639 0.471761 29.6416 0.534552M29.6416 0.534552V0.667279M126.589 64.2576C129.756 63.8492 132.664 63.4893 135.816 62.9859L136.102 62.9283C137.623 62.7077 138.821 61.115 138.456 59.5672L136.33 48.6682C136.054 47.2312 134.618 46.1668 133.14 46.3899L132.949 46.4088C130.059 46.7768 127.359 47.1755 124.463 47.491M126.589 64.2576L126.57 64.1243M126.589 64.2576C125.097 64.4577 123.559 63.3285 123.419 61.8077L121.976 50.6622C121.74 49.1358 122.931 47.6033 124.463 47.491M124.463 47.491L124.482 47.6243M127.482 19.4084C128.536 19.2639 129.55 18.4758 129.845 17.4144C130.459 17.0627 127.479 3.65212 127.358 2.90833C127.287 2.47288 127.111 2.08338 126.855 1.71174C126.486 1.18492 125.904 0.787245 125.298 0.610615C125.062 0.55395 124.796 0.503922 124.539 0.515664L102.894 0.534552C101.714 0.489118 100.564 1.32632 100.216 2.43307C99.7732 2.60612 101.105 18.4625 101.071 19.0664C101.211 20.5152 102.595 21.6209 104.052 21.5351L127.482 19.4084ZM49.8818 48.4783C48.4055 48.2894 46.9792 49.5075 46.8251 50.947L45.3631 62.1875C45.0966 63.7037 46.3605 65.2551 47.8884 65.3776H47.9073C51.0727 65.6819 54.0436 65.9223 57.2121 66.1546L57.4577 66.175C59.0018 66.2944 60.4118 65.034 60.4955 63.5169L61.2362 52.1431C61.3587 50.6127 60.0907 49.1889 58.5781 49.1052L58.2637 49.0919C55.3709 48.8893 52.7705 48.729 49.8818 48.4783ZM105.855 49.1241C104.346 49.1506 103.04 50.604 103.197 52.1242L103.938 63.5169C103.968 65.0218 105.456 66.3235 106.938 66.1561L107.073 66.1484C110.242 65.9167 113.152 65.7012 116.317 65.3934L116.507 65.3776C118.054 65.2245 119.286 63.7379 119.052 62.1686L117.609 50.947C117.435 49.4727 116.001 48.2807 114.514 48.4594L114.155 48.5069C111.273 48.7606 108.742 48.9204 105.855 49.1241ZM27.2495 67.1817C25.7921 66.8938 24.2423 67.9903 24.0218 69.4411L20.3194 88.4099C19.9268 90.0777 21.3842 91.8164 23.0912 91.7516L23.4481 91.7536L141.323 91.7899C143.066 91.7878 144.465 90.1083 144.115 88.391L140.393 69.4411C140.253 68.7203 139.824 68.0985 139.243 67.6855C138.662 67.2731 137.93 67.0683 137.184 67.1817L133.178 67.7703C99.4909 72.5653 65.3087 72.5898 31.6166 67.8269L27.2495 67.1817ZM67.7488 18.9714C67.5711 20.5228 68.9591 21.9833 70.4828 22.0094L70.5737 22.0175C78.3655 22.259 85.8705 22.2319 93.6628 21.9905H93.9318C95.4632 21.9379 96.8007 20.5243 96.647 18.9714L95.6598 3.19268C95.575 1.72297 94.2922 0.485034 92.8114 0.496265L92.695 0.498817L71.6028 0.534552C70.1418 0.474314 68.8121 1.75258 68.7738 3.19268L68.7559 3.57248L67.7488 18.9714ZM96.8558 66.7258C98.3689 66.6625 99.7063 65.2643 99.5521 63.7068L98.8303 52.2764C98.7461 50.7857 97.4153 49.5248 95.8686 49.5988L95.3923 49.6177C86.3146 49.948 78.0725 49.948 68.9948 49.6177H68.5461C67.0606 49.4881 65.6318 50.7903 65.6033 52.2764L64.8626 63.7068C64.6808 65.2296 66.0565 66.6906 67.5589 66.7258H96.8558ZM131.868 25.9401C131.598 24.5348 130.192 23.4469 128.735 23.6613L128.633 23.672C97.8002 27.5446 66.7671 27.4931 35.9296 23.6904L35.6983 23.6613C34.269 23.4193 32.8137 24.5184 32.5467 25.9213L32.5201 26.0662L30.0403 38.7948C29.6687 40.3457 30.8846 41.9747 32.4328 42.1554L32.6758 42.184L36.9709 42.7251C67.1668 46.4517 97.8201 46.3924 128.013 42.6684L131.856 42.1722L131.982 42.1554C133.551 41.941 134.72 40.3406 134.374 38.7948L134.357 38.7228L131.868 25.9401ZM161.07 91.7899C162.592 91.7914 163.919 90.4646 163.918 88.9413L163.899 65.5864C163.924 63.8328 162.158 62.3902 160.443 62.8144L147.019 65.5297C145.511 65.7309 144.405 67.3629 144.741 68.8525L148.786 89.4922C148.998 90.7725 150.254 91.8154 151.576 91.7705L161.07 91.7899ZM12.8573 91.7899C14.1702 91.7832 15.3933 90.7898 15.6481 89.4922L19.6925 68.8714C19.9932 67.3323 18.9268 65.7742 17.4143 65.5108L3.99043 62.8144C2.28137 62.3443 0.44214 63.839 0.515647 65.5864L0.534544 88.9413C0.479413 90.481 1.87095 91.7766 3.36357 91.7705L12.8573 91.7899ZM143.013 44.9278C141.488 45.1121 140.377 46.7447 140.697 48.2506L142.804 59.0169C143.047 60.4881 144.605 61.5484 146.089 61.2574L161.696 58.0674C162.925 57.7759 163.931 56.6028 163.899 55.2954V44.4153C163.922 42.6899 162.192 41.2207 160.481 41.6428L143.013 44.9278ZM37.8444 64.2576C39.3288 64.4562 40.8607 63.3127 40.996 61.8077L42.458 50.6811C42.6739 49.1455 41.5049 47.6268 39.9705 47.4721L39.8495 47.4583C36.9577 47.1439 34.2813 46.7937 31.3956 46.4236L31.2746 46.4088C29.8422 46.152 28.3455 47.2337 28.1035 48.6682L25.958 59.5866C25.5879 61.1334 26.8284 62.7215 28.3128 62.9283L28.3496 62.9374C31.5017 63.4413 34.6784 63.8507 37.8444 64.2576ZM22.4266 40.6556C23.9218 40.8894 25.3786 39.8536 25.6543 38.3961L28.1607 25.6553C28.467 24.0784 27.3485 22.5081 25.7875 22.2942L3.95214 18.3262C2.23644 17.88 0.456439 19.3757 0.496766 21.117L0.534544 34.1427C0.493196 35.4245 1.48453 36.6436 2.75611 36.8958L22.4266 40.6556ZM161.677 36.9152C162.91 36.6303 163.92 35.4633 163.899 34.1427V21.117C163.923 19.3946 162.194 17.9224 160.481 18.3451L138.627 22.2942C137.084 22.4443 135.895 24.1065 136.254 25.6364L138.76 38.415C138.997 39.8648 140.544 40.945 142.007 40.6556L161.677 36.9152ZM39.8949 0.534552C38.5733 0.479929 37.3502 1.52133 37.1037 2.81287L34.5023 16.0473C34.1322 17.5957 35.3451 19.2542 36.9326 19.4084L60.3816 21.5351C61.9309 21.6219 63.277 20.3926 63.3817 18.8765L64.3689 3.55359C64.4945 1.97771 63.1418 0.49116 61.5399 0.515664L39.8949 0.534552ZM4.10374 41.6801C9.88176 42.9206 15.3903 43.8956 21.2163 44.8824L21.4016 44.909C22.9503 45.1162 24.0392 46.7268 23.737 48.2695L21.6104 58.998C21.3633 60.4948 19.8053 61.5285 18.3255 61.2574C13.1248 60.3023 2.73721 58.0485 2.73721 58.0485C1.47992 57.7779 0.491154 56.5757 0.534544 55.2954L0.515647 44.4153C0.481956 42.6659 2.2395 41.2048 3.95214 41.6428L4.10374 41.6801Z" stroke="#CCCCCC" stroke-width="0.992375" stroke-miterlimit="10"/>
</svg>
