<svg width="165" height="114" viewBox="0 0 165 114" fill="none" xmlns="http://www.w3.org/2000/svg">
<path d="M161.07 22.1621H134.773M161.07 22.1621V22.2948M161.07 22.1621C162.595 22.1059 163.905 23.4848 163.899 24.9912V32.4725C163.908 33.7921 162.909 34.9652 161.659 35.2444L137.526 39.6689C136.069 39.9461 134.537 38.846 134.317 37.4089L131.982 25.5421C131.628 23.8416 133.031 22.0886 134.773 22.1621M134.773 22.1621V22.2948M3.36357 22.1621H29.6416M3.36357 22.1621V22.2948M3.36357 22.1621C1.85717 22.0978 0.471245 23.471 0.534544 24.9912L0.515647 32.4725C0.49676 33.7941 1.50648 34.9754 2.75611 35.2444L26.8886 39.65C28.3629 39.9323 29.8243 38.8209 30.0974 37.4089L32.414 25.5227C32.7647 23.837 31.3639 22.0993 29.6416 22.1621M29.6416 22.1621V22.2948M126.589 85.8851C129.756 85.4767 132.664 85.1168 135.816 84.6135L136.102 84.5558C137.623 84.3353 138.821 82.7425 138.456 81.1947L136.33 70.2958C136.054 68.8587 134.618 67.7944 133.14 68.0174L132.949 68.0363C130.059 68.4044 127.359 68.8031 124.463 69.1186M126.589 85.8851L126.57 85.7519M126.589 85.8851C125.097 86.0852 123.559 84.956 123.419 83.4353L121.976 72.2897C121.74 70.7634 122.931 69.2309 124.463 69.1186M124.463 69.1186L124.482 69.2518M127.482 41.036C128.536 40.8915 129.55 40.1033 129.845 39.042C130.459 38.6903 127.479 25.2797 127.358 24.5359C127.287 24.1004 127.111 23.7109 126.855 23.3393C126.486 22.8125 125.904 22.4148 125.298 22.2382C125.062 22.1815 124.796 22.1315 124.539 22.1432L102.894 22.1621C101.714 22.1167 100.564 22.9539 100.216 24.0606C99.7732 24.2337 101.105 40.09 101.071 40.6939C101.211 42.1427 102.595 43.2484 104.052 43.1627L127.482 41.036ZM49.8818 70.1059C48.4055 69.917 46.9792 71.135 46.8251 72.5746L45.3631 83.8151C45.0966 85.3312 46.3605 86.8826 47.8884 87.0051H47.9073C51.0727 87.3094 54.0436 87.5498 57.2121 87.7821L57.4577 87.8025C59.0018 87.922 60.4118 86.6616 60.4955 85.1444L61.2362 73.7707C61.3587 72.2402 60.0907 70.8165 58.5781 70.7327L58.2637 70.7195C55.3709 70.5168 52.7705 70.3565 49.8818 70.1059ZM105.855 70.7516C104.346 70.7782 103.04 72.2315 103.197 73.7518L103.938 85.1444C103.968 86.6493 105.456 87.9511 106.938 87.7836L107.073 87.776C110.242 87.5442 113.152 87.3288 116.317 87.021L116.507 87.0051C118.054 86.852 119.286 85.3654 119.052 83.7962L117.609 72.5746C117.435 71.1003 116.001 69.9083 114.514 70.087L114.155 70.1344C111.273 70.3882 108.742 70.5479 105.855 70.7516ZM27.2495 88.8092C25.7921 88.5213 24.2423 89.6178 24.0218 91.0686L20.3194 110.037C19.9268 111.705 21.3842 113.444 23.0912 113.379L23.4481 113.381L141.323 113.417C143.066 113.415 144.465 111.736 144.115 110.019L140.393 91.0686C140.253 90.3478 139.824 89.7261 139.243 89.3131C138.662 88.9006 137.93 88.6959 137.184 88.8092L133.178 89.3978C99.4909 94.1929 65.3087 94.2174 31.6166 89.4545L27.2495 88.8092ZM67.7488 40.599C67.5711 42.1504 68.9591 43.6109 70.4828 43.6369L70.5737 43.6451C78.3655 43.8865 85.8705 43.8595 93.6628 43.618H93.9318C95.4632 43.5654 96.8007 42.1519 96.647 40.599L95.6598 24.8202C95.575 23.3505 94.2922 22.1126 92.8114 22.1238L92.695 22.1264L71.6028 22.1621C70.1418 22.1019 68.8121 23.3801 68.7738 24.8202L68.7559 25.2L67.7488 40.599ZM96.8558 88.3534C98.3689 88.2901 99.7063 86.8918 99.5521 85.3343L98.8303 73.9039C98.7461 72.4133 97.4153 71.1524 95.8686 71.2264L95.3923 71.2453C86.3146 71.5756 78.0725 71.5756 68.9948 71.2453H68.5461C67.0606 71.1156 65.6318 72.4179 65.6033 73.9039L64.8626 85.3343C64.6808 86.8571 66.0565 88.3181 67.5589 88.3534H96.8558ZM131.868 47.5677C131.598 46.1623 130.192 45.0745 128.735 45.2889L128.633 45.2996C97.8002 49.1722 66.7671 49.1206 35.9296 45.318L35.6983 45.2889C34.269 45.0469 32.8137 46.146 32.5467 47.5488L32.5201 47.6938L30.0403 60.4224C29.6687 61.9732 30.8846 63.6022 32.4328 63.7829L32.6758 63.8115L36.9709 64.3526C67.1668 68.0792 97.8201 68.02 128.013 64.296L131.856 63.7998L131.982 63.7829C133.551 63.5685 134.72 61.9681 134.374 60.4224L134.357 60.3504L131.868 47.5677ZM161.07 113.417C162.592 113.419 163.919 112.092 163.918 110.569L163.899 87.2139C163.924 85.4604 162.158 84.0178 160.443 84.442L147.019 87.1573C145.511 87.3584 144.405 88.9904 144.741 90.4801L148.786 111.12C148.998 112.4 150.254 113.443 151.576 113.398L161.07 113.417ZM12.8573 113.417C14.1702 113.411 15.3933 112.417 15.6481 111.12L19.6925 90.4989C19.9932 88.9598 18.9268 87.4018 17.4143 87.1384L3.99043 84.442C2.28137 83.9718 0.44214 85.4665 0.515647 87.2139L0.534544 110.569C0.479413 112.109 1.87095 113.404 3.36357 113.398L12.8573 113.417ZM143.013 66.5554C141.488 66.7397 140.377 68.3722 140.697 69.8782L142.804 80.6444C143.047 82.1157 144.605 83.176 146.089 82.885L161.696 79.6949C162.925 79.4034 163.931 78.2303 163.899 76.923V66.0429C163.922 64.3174 162.192 62.8482 160.481 63.2704L143.013 66.5554ZM37.8444 85.8851C39.3288 86.0837 40.8607 84.9402 40.996 83.4353L42.458 72.3086C42.6739 70.7731 41.5049 69.2544 39.9705 69.0997L39.8495 69.0859C36.9577 68.7714 34.2813 68.4212 31.3956 68.0511L31.2746 68.0363C29.8422 67.7796 28.3455 68.8613 28.1035 70.2958L25.958 81.2141C25.5879 82.7609 26.8284 84.3491 28.3128 84.5558L28.3496 84.565C31.5017 85.0689 34.6784 85.4783 37.8444 85.8851ZM22.4266 62.2831C23.9218 62.5169 25.3786 61.4811 25.6543 60.0237L28.1607 47.2828C28.467 45.7059 27.3485 44.1357 25.7875 43.9218L3.95214 39.9537C2.23644 39.5076 0.456439 41.0033 0.496766 42.7446L0.534544 55.7703C0.493196 57.0521 1.48453 58.2712 2.75611 58.5233L22.4266 62.2831ZM161.677 58.5427C162.91 58.2579 163.92 57.0909 163.899 55.7703V42.7446C163.923 41.0222 162.194 39.5499 160.481 39.9726L138.627 43.9218C137.084 44.0719 135.895 45.734 136.254 47.264L138.76 60.0426C138.997 61.4924 140.544 62.5726 142.007 62.2831L161.677 58.5427ZM39.8949 22.1621C38.5733 22.1075 37.3502 23.1489 37.1037 24.4404L34.5023 37.6749C34.1322 39.2232 35.3451 40.8818 36.9326 41.036L60.3816 43.1627C61.9309 43.2495 63.277 42.0202 63.3817 40.504L64.3689 25.1811C64.4945 23.6053 63.1418 22.1187 61.5399 22.1432L39.8949 22.1621ZM4.10374 63.3077C9.88176 64.5481 15.3903 65.5232 21.2163 66.51L21.4016 66.5365C22.9503 66.7438 24.0392 68.3544 23.737 69.8971L21.6104 80.6255C21.3633 82.1223 19.8053 83.156 18.3255 82.885C13.1248 81.9298 2.73721 79.676 2.73721 79.676C1.47992 79.4055 0.491154 78.2033 0.534544 76.923L0.515647 66.0429C0.481956 64.2934 2.2395 62.8324 3.95214 63.2704L4.10374 63.3077Z" stroke="#CCCCCC" stroke-width="0.992375" stroke-miterlimit="10"/>
<path d="M146.81 1.93802V10.89V11.793C146.781 12.8365 147.698 13.7492 148.747 13.7104L148.987 13.7115L161.048 13.7298H161.468C162.52 13.7074 163.382 12.8477 163.405 11.793V11.1401V2.66189V1.93802C163.387 0.898657 162.542 -0.0294148 161.468 0.00121464L160.897 0.00172509H149.882L148.747 0.00121464C147.694 -0.0380931 146.771 0.882322 146.81 1.93802Z" fill="#CCCCCC"/>
<path d="M125.84 1.93802V10.89V11.793C125.81 12.8365 126.728 13.7492 127.776 13.7104L128.017 13.7115L140.078 13.7298H140.498C141.549 13.7074 142.411 12.8477 142.434 11.793V11.1401V2.66189V1.93802C142.416 0.898657 141.571 -0.0294148 140.498 0.00121464L139.926 0.00172509H128.911L127.776 0.00121464C126.724 -0.0380931 125.801 0.882322 125.84 1.93802Z" fill="#CCCCCC"/>
<path d="M104.869 1.93802V10.89L104.869 11.793C104.839 12.8365 105.757 13.7492 106.806 13.7104L107.046 13.7115L119.107 13.7298H119.527C120.579 13.7074 121.441 12.8477 121.464 11.793V11.1401V2.66189V1.93802C121.446 0.898657 120.601 -0.0294148 119.527 0.00121464L118.955 0.00172509H107.94L106.806 0.00121464C105.754 -0.0380931 104.83 0.882322 104.869 1.93802Z" fill="#CCCCCC"/>
<path d="M83.8982 1.93802V10.89L83.8987 11.793C83.8685 12.8365 84.7864 13.7492 85.8349 13.7104L86.0753 13.7115L98.1362 13.7298H98.5563C99.6079 13.7074 100.47 12.8477 100.493 11.793V11.1401V2.66189V1.93802C100.475 0.898657 99.6298 -0.0294148 98.5563 0.00121464L97.9846 0.00172509H86.9697L85.8349 0.00121464C84.7828 -0.0380931 83.8594 0.882322 83.8982 1.93802Z" fill="#CCCCCC"/>
<path d="M62.9275 1.93802V10.89L62.928 11.793C62.8979 12.8365 63.8157 13.7492 64.8642 13.7104L65.1046 13.7115L77.1655 13.7298H77.5856C78.6372 13.7074 79.4994 12.8477 79.5224 11.793V11.1401V2.66189V1.93802C79.5045 0.898657 78.6592 -0.0294148 77.5856 0.00121464L77.0139 0.00172509H65.999L64.8642 0.00121464C63.8121 -0.0380931 62.8887 0.882322 62.928 1.93802" fill="#CCCCCC"/>
<path d="M41.9568 1.93802V10.89L41.9573 11.793C41.9271 12.8365 42.845 13.7492 43.8935 13.7104L44.1339 13.7115L56.1948 13.7298H56.6149C57.6665 13.7074 58.5287 12.8477 58.5517 11.793V11.1401V2.66189V1.93802C58.5338 0.898657 57.6884 -0.0294148 56.6149 0.00121464L56.0432 0.00172509H45.0283L43.8935 0.00121464C42.8414 -0.0380931 41.918 0.882322 41.9573 1.93802" fill="#CCCCCC"/>
<path d="M20.9865 1.93802V10.89V11.793C20.9564 12.8365 21.8748 13.7492 22.9233 13.7104L23.1637 13.7115L35.2246 13.7298H35.6447C36.6963 13.7074 37.5585 12.8477 37.5814 11.793V11.1401V2.66189V1.93802C37.5631 0.898657 36.7182 -0.0294148 35.6447 0.00121464L35.073 0.00172509H24.058L22.9233 0.00121464C21.8707 -0.0380931 20.9477 0.882322 20.9865 1.93802Z" fill="#CCCCCC"/>
<path d="M0.0158291 1.93802V10.89V11.793C-0.0137782 12.8365 0.904049 13.7492 1.95256 13.7104L2.19299 13.7115L14.2534 13.7298H14.674C15.7256 13.7074 16.5878 12.8477 16.6102 11.793V11.1401V2.66189L16.6107 1.93802C16.5924 0.898657 15.7475 -0.0294148 14.674 0.00121464L14.1023 0.00172509H3.08733L1.95256 0.00121464C0.899965 -0.0380931 -0.0229667 0.882322 0.0158291 1.93802Z" fill="#CCCCCC"/>
</svg>
